<svg width="64" height="64" viewBox="0 0 64 64" fill="none" xmlns="http://www.w3.org/2000/svg">
  <defs>
    <linearGradient id="stream" x1="13" y1="32" x2="51" y2="32" gradientUnits="userSpaceOnUse">
      <stop stop-color="#19D7DE"/>
      <stop offset="0.55" stop-color="#F6F0E3"/>
      <stop offset="1" stop-color="#FFB23F"/>
    </linearGradient>
  </defs>
  <path d="M13 34C19 24 27 42 32 32C37 22 45 40 51 30" stroke="url(#stream)" stroke-width="5" stroke-linecap="round" stroke-linejoin="round"/>
  <path d="M18 20H46" stroke="#F6F0E3" stroke-width="3" stroke-linecap="round" opacity="0.82"/>
  <path d="M22 44H42" stroke="#F6F0E3" stroke-width="3" stroke-linecap="round" opacity="0.58"/>
  <path d="M32 10L34.3 16.1L40 18.5L34.3 20.9L32 27L29.7 20.9L24 18.5L29.7 16.1L32 10Z" fill="#B97CFF"/>
  <path d="M49 40L50.5 44L54 45.5L50.5 47L49 51L47.5 47L44 45.5L47.5 44L49 40Z" fill="#FFB23F"/>
</svg>
